#!OML:ASF H:\Dans Jumps\Project 1\Capture day 1\Session 1\subject.ASF
:FULLY-SPECIFIED
:DEGREES
588
root 0.390601 17.7573 -3.0381 7.2689 -0.0901435 -1.32943
lowerback 0.395339 -0.426542 -0.0819727
upperback 3.2166 -0.614675 1.80127
thorax 3.10232 -0.336472 1.88356
lowerneck -12.9323 0.133853 -2.20021
upperneck 35.4887 0.458533 0.991029
head 14.3157 0.0333901 0.865573
rclavicle -1.98785e-016 -2.38542e-015
rhumerus -26.124 -14.708 -80.1557
rradius 23.2401
rwrist 33.4409
rhand -18.8127 -26.3624
rfingers 7.12502
rthumb 7.48597 -56.2099
lclavicle -1.98785e-016 -2.38542e-015
lhumerus -24.266 -5.24368 91.4992
lradius 18.1027
lwrist 10.025
lhand -25.1831 -3.27618
lfingers 7.12502
lthumb 1.33472 26.6994
rfemur -17.5605 -1.09059 19.2595
rtibia 22.8302
rfoot -11.5509 -0.971107
rtoes 14.5031
lfemur -15.8573 6.99729 -17.5646
ltibia 19.6645
lfoot -8.74402 2.82322
ltoes 2.82696
589
root 0.392241 17.7571 -3.03828 7.24019 -0.0731735 -1.32342
lowerback 0.389277 -0.427994 -0.0797462
upperback 3.21553 -0.616667 1.80078
thorax 3.10467 -0.337398 1.88172
lowerneck -12.9302 0.134112 -2.19792
upperneck 35.4896 0.457125 0.994441
head 14.3157 0.0336222 0.866359
rclavicle -7.95139e-015 -7.95139e-015
rhumerus -26.1308 -14.7589 -80.1486
rradius 23.2267
rwrist 33.4809
rhand -18.817 -26.3205
rfingers 7.12502
rthumb 7.4818 -56.1682
lclavicle -7.95139e-015 -7.95139e-015
lhumerus -24.279 -5.25453 91.5169
lradius 18.0982
lwrist 9.98105
lhand -25.2102 -3.37157
lfingers 7.12502
lthumb 1.30856 26.6042
rfemur -17.5259 -1.10241 19.2467
rtibia 22.8296
rfoot -11.5556 -0.975656
rtoes 14.5077
lfemur -15.8277 6.98573 -17.573
ltibia 19.6652
lfoot -8.74886 2.81823
ltoes 2.83886
590
root 0.393908 17.7567 -3.03847 7.2165 -0.0777428 -1.32225
lowerback 0.36827 -0.426682 -0.0744191
upperback 3.21428 -0.615183 1.80087
thorax 3.11513 -0.336552 1.87872
lowerneck -12.9101 0.140939 -2.1955
upperneck 35.4851 0.465618 0.995677
head 14.3088 0.0378339 0.86762
rclavicle 1.05356e-014 3.97569e-015
rhumerus -26.1355 -14.7921 -80.1476
rradius 23.2123
rwrist 33.5104
rhand -18.8075 -26.311
rfingers 7.12502
rthumb 7.49095 -56.1584
lclavicle 1.05356e-014 3.97569e-015
lhumerus -24.2969 -5.26141 91.5338
lradius 18.0964
lwrist 9.95217
lhand -25.2236 -3.42856
lfingers 7.12502
lthumb 1.29557 26.5472
rfemur -17.5011 -1.10443 19.2378
rtibia 22.83
rfoot -11.5559 -0.969662
rtoes 14.4998
lfemur -15.802 6.98518 -17.5782
ltibia 19.6691
lfoot -8.75302 2.82532
ltoes 2.83946
591
root 0.395349 17.7564 -3.0391 7.2004 -0.0868553 -1.32111
lowerback 0.342668 -0.42635 -0.0735156
upperback 3.20836 -0.614965 1.80263
thorax 3.12345 -0.336453 1.87987
lowerneck -12.88 0.151467 -2.19177
upperneck 35.4796 0.480142 0.993442
head 14.2991 0.0443286 0.868104
rclavicle 8.24956e-015 -3.18055e-015
rhumerus -26.1436 -14.7976 -80.1528
rradius 23.2054
rwrist 33.5149
rhand -18.7824 -26.3362
rfingers 7.12502
rthumb 7.51518 -56.1827
lclavicle 8.24956e-015 -3.18055e-015
lhumerus -24.3155 -5.26527 91.5512
lradius 18.0987
lwrist 9.95043
lhand -25.2066 -3.42753
lfingers 7.12502
lthumb 1.31205 26.5482
rfemur -17.4877 -1.1039 19.2298
rtibia 22.8311
rfoot -11.5528 -0.962396
rtoes 14.4812
lfemur -15.7878 6.99408 -17.5846
ltibia 19.6765
lfoot -8.75548 2.82766
ltoes 2.82927
